<svg width="17" height="17" viewBox="0 0 17 17" fill="none" xmlns="http://www.w3.org/2000/svg">
<path d="M10.5217 15.4126C11.2308 15.8707 12.0758 16.0704 12.9146 15.978C13.7534 15.8856 14.5348 15.5067 15.1275 14.9051L15.6456 14.3977C15.8728 14.165 16 13.8525 16 13.5271C16 13.2016 15.8728 12.8891 15.6456 12.6564L13.4464 10.4768C13.216 10.25 12.9059 10.123 12.5828 10.123C12.2598 10.123 11.9496 10.25 11.7192 10.4768C11.4869 10.7043 11.1749 10.8317 10.8499 10.8317C10.525 10.8317 10.2129 10.7043 9.98057 10.4768L6.52625 7.01719C6.41102 6.90345 6.31951 6.76791 6.25705 6.61844C6.19459 6.46896 6.16243 6.30855 6.16243 6.14651C6.16243 5.98448 6.19459 5.82406 6.25705 5.67459C6.31951 5.52512 6.41102 5.38957 6.52625 5.27584C6.75269 5.04508 6.87957 4.73448 6.87957 4.41093C6.87957 4.08739 6.75269 3.77679 6.52625 3.54603L4.33851 1.35493C4.10616 1.12742 3.79412 1.00003 3.46918 1.00003C3.14423 1.00003 2.83219 1.12742 2.59984 1.35493L2.09321 1.87387C1.49256 2.46748 1.11429 3.25011 1.02203 4.09019C0.929762 4.93026 1.12912 5.77653 1.58658 6.48671C3.97011 10.0048 7.00287 13.0344 10.5217 15.4126Z" stroke="#428AF6" stroke-linecap="round" stroke-linejoin="round"/>
</svg>
